[h264 @ 0x562a424a99c0] Reinit context to 1920x1088, pix_fmt: yuv420p
Input #0, mov,mp4,m4a,3gp,3g2,mj2, from '/var/www/html/project/media/video/original/Il_mio_filmato_4.mov':
  Metadata:
    major_brand     : qt  
    minor_version   : 0
    compatible_brands: qt  
    creation_time   : 2025-05-26T17:06:07.000000Z
    com.apple.quicktime.artwork: ˙Ř˙ŕ
    com.apple.quicktime.is-montage: iMovie
  Duration: 00:01:18.17, start: 0.000000, bitrate: 15286 kb/s
    Stream #0:0(und): Audio: aac (LC) (mp4a / 0x6134706D), 44100 Hz, stereo, fltp, 256 kb/s (default)
    Metadata:
      creation_time   : 2025-05-26T17:06:07.000000Z
      handler_name    : Core Media Audio
    Stream #0:1(und): Video: h264 (High), 1 reference frame (avc1 / 0x31637661), yuv420p(tv, bt709, left), 1920x1080 (1920x1088), 15016 kb/s, 29.87 fps, 30 tbr, 600 tbn, 1200 tbc (default)
    Metadata:
      creation_time   : 2025-05-26T17:06:07.000000Z
      handler_name    : Core Media Video
      encoder         : H.264
Input #1, png_pipe, from '/var/www/html/project/static/images/templates/logo.png':
  Duration: N/A, bitrate: N/A
    Stream #1:0: Video: png, 1 reference frame, rgba(pc), 1920x1080 [SAR 2835:2835 DAR 16:9], 25 tbr, 25 tbn, 25 tbc
[h264 @ 0x562a424ccb40] Reinit context to 1280x720, pix_fmt: yuv420p
Input #2, mov,mp4,m4a,3gp,3g2,mj2, from '/var/www/html/project/static/images/templates/Codino.mp4':
  Metadata:
    major_brand     : mp42
    minor_version   : 1
    compatible_brands: isommp41mp42
    creation_time   : 2021-07-11T07:02:58.000000Z
  Duration: 00:00:02.00, start: 0.000000, bitrate: 1007 kb/s
    Stream #2:0(ita): Audio: aac (LC) (mp4a / 0x6134706D), 44100 Hz, stereo, fltp, 102 kb/s (default)
    Metadata:
      creation_time   : 2021-07-11T07:02:58.000000Z
      handler_name    : Core Media Audio
    Stream #2:1(und): Video: h264 (High), 1 reference frame (avc1 / 0x31637661), yuv420p(tv, bt709, progressive, left), 1280x720 [SAR 1:1 DAR 16:9], 813 kb/s, 25 fps, 25 tbr, 25k tbn, 50k tbc (default)
    Metadata:
      creation_time   : 2021-07-11T07:02:58.000000Z
      handler_name    : Core Media Video
[Parsed_scale_0 @ 0x562a424fe780] w:1280 h:720 flags:'bilinear' interl:0
[Parsed_scale_2 @ 0x562a4250cc40] w:1280 h:720 flags:'bilinear' interl:0
[Parsed_scale_4 @ 0x562a42500700] w:1280 h:720 flags:'bilinear' interl:0
Stream mapping:
  Stream #0:0 (aac) -> concat:in0:a0
  Stream #0:1 (h264) -> scale
  Stream #1:0 (png) -> scale
  Stream #2:0 (aac) -> concat:in1:a0
  Stream #2:1 (h264) -> scale
  concat:out:v0 -> Stream #0:0 (libx264)
  concat:out:a0 -> Stream #0:1 (aac)
Press [q] to stop, [?] for help
[h264 @ 0x562a424b8ac0] Reinit context to 1920x1088, pix_fmt: yuv420p
[h264 @ 0x562a428d2d00] Reinit context to 1280x720, pix_fmt: yuv420p
[Parsed_scale_0 @ 0x562a43ef8040] w:1280 h:720 flags:'bilinear' interl:0
[Parsed_scale_2 @ 0x562a4261b080] w:1280 h:720 flags:'bilinear' interl:0
[Parsed_scale_4 @ 0x562a43f01b40] w:1280 h:720 flags:'bilinear' interl:0
[graph 0 input from stream 0:1 @ 0x562a43f06340] w:1920 h:1080 pixfmt:yuv420p tb:1/600 fr:30/1 sar:0/1 sws_param:flags=2
[graph 0 input from stream 1:0 @ 0x562a43f07380] w:1920 h:1080 pixfmt:rgba tb:1/25 fr:25/1 sar:2835/2835 sws_param:flags=2
[graph 0 input from stream 2:1 @ 0x562a43f08400] w:1280 h:720 pixfmt:yuv420p tb:1/25000 fr:25/1 sar:1/1 sws_param:flags=2
[graph_0_in_0_0 @ 0x562a43f093c0] tb:1/44100 samplefmt:fltp samplerate:44100 chlayout:0x3
[graph_0_in_2_0 @ 0x562a43f0a500] tb:1/44100 samplefmt:fltp samplerate:44100 chlayout:0x3
[Parsed_scale_0 @ 0x562a43ef8040] w:1920 h:1080 fmt:yuv420p sar:0/1 -> w:1280 h:720 fmt:yuv420p sar:0/1 flags:0x2
[Parsed_setsar_1 @ 0x562a43ef7e80] w:1280 h:720 sar:0/1 dar:16/9 -> sar:1/1 dar:16/9
[Parsed_scale_2 @ 0x562a4261b080] w:1920 h:1080 fmt:rgba sar:2835/2835 -> w:1280 h:720 fmt:yuva420p sar:1/1 flags:0x2
[Parsed_setsar_3 @ 0x562a43f00e00] w:1280 h:720 sar:1/1 dar:16/9 -> sar:1/1 dar:16/9
[Parsed_overlay_6 @ 0x562a43f03280] main w:1280 h:720 fmt:yuv420p overlay w:1280 h:720 fmt:yuva420p
[Parsed_overlay_6 @ 0x562a43f03280] [framesync @ 0x562a43f033e8] Selected 1/600 time base
[Parsed_overlay_6 @ 0x562a43f03280] [framesync @ 0x562a43f033e8] Sync level 2
[Parsed_scale_4 @ 0x562a43f01b40] w:1280 h:720 fmt:yuv420p sar:1/1 -> w:1280 h:720 fmt:yuv420p sar:1/1 flags:0x2
[Parsed_setsar_5 @ 0x562a43f02600] w:1280 h:720 sar:1/1 dar:16/9 -> sar:1/1 dar:16/9
[libx264 @ 0x562a424c8f40] using SAR=1/1
[libx264 @ 0x562a424c8f40] using cpu capabilities: MMX2 SSE2Fast SSSE3 SSE4.2 AVX FMA3 BMI2 AVX2
[libx264 @ 0x562a424c8f40] profile High, level 3.1
[libx264 @ 0x562a424c8f40] 264 - core 155 r2917 0a84d98 - H.264/MPEG-4 AVC codec - Copyleft 2003-2018 - http://www.videolan.org/x264.html - options: cabac=1 ref=1 deblock=1:0:0 analyse=0x3:0x113 me=hex subme=2 psy=1 psy_rd=1.00:0.00 mixed_ref=0 me_range=16 chroma_me=1 trellis=0 8x8dct=1 cqm=0 deadzone=21,11 fast_pskip=1 chroma_qp_offset=0 threads=22 lookahead_threads=5 sliced_threads=0 nr=0 decimate=1 interlaced=0 bluray_compat=0 constrained_intra=0 bframes=3 b_pyramid=2 b_adapt=1 b_bias=0 direct=1 weightb=1 open_gop=0 weightp=1 keyint=250 keyint_min=25 scenecut=40 intra_refresh=0 rc_lookahead=10 rc=crf mbtree=1 crf=18.0 qcomp=0.60 qpmin=0 qpmax=69 qpstep=4 ip_ratio=1.40 aq=1:1.00
Output #0, mp4, to '/var/www/html/project/media/video/watermarks/Il_mio_filmato_4.mp4':
  Metadata:
    major_brand     : qt  
    minor_version   : 0
    compatible_brands: qt  
    com.apple.quicktime.is-montage: iMovie
    com.apple.quicktime.artwork: ˙Ř˙ŕ
    encoder         : Lavf58.29.100
    Stream #0:0: Video: h264 (libx264), 1 reference frame (avc1 / 0x31637661), yuv420p(progressive), 1280x720 [SAR 1:1 DAR 16:9], q=-1--1, 30 fps, 15360 tbn, 30 tbc (default)
    Metadata:
      encoder         : Lavc58.54.100 libx264
    Side data:
      cpb: bitrate max/min/avg: 0/0/0 buffer size: 0 vbv_delay: -1
    Stream #0:1: Audio: aac (LC) (mp4a / 0x6134706D), 44100 Hz, stereo, fltp, delay 1024, 128 kb/s (default)
    Metadata:
      encoder         : Lavc58.54.100 aac
[Parsed_concat_7 @ 0x562a43f04380] EOF on in0:a0, 1 streams left in segment.
[Parsed_overlay_6 @ 0x562a43f03280] [framesync @ 0x562a43f033e8] Sync level 0
[Parsed_concat_7 @ 0x562a43f04380] EOF on in0:v0, 0 streams left in segment.
[Parsed_concat_7 @ 0x562a43f04380] Segment finished at pts=78180136
[Parsed_concat_7 @ 0x562a43f04380] EOF on in1:a0, 1 streams left in segment.
[Parsed_concat_7 @ 0x562a43f04380] EOF on in1:v0, 0 streams left in segment.
[Parsed_concat_7 @ 0x562a43f04380] Segment finished at pts=80198821
No more output streams to write to, finishing.
frame= 2385 fps= 70 q=-1.0 Lsize=   42752kB time=00:01:20.20 bitrate=4366.8kbits/s speed=2.37x    
[AVIOContext @ 0x562a424a5ec0] Statistics: 0 seeks, 67 writeouts
video:41416kB audio:1251kB subtitle:0kB other streams:0kB global headers:0kB muxing overhead: 0.200199%
Input file #0 (/var/www/html/project/media/video/original/Il_mio_filmato_4.mov):
  Input stream #0:0 (audio): 3369 packets read (2505497 bytes); 3367 frames decoded (3447744 samples); 
  Input stream #0:1 (video): 2335 packets read (146728371 bytes); 2335 frames decoded; 
  Total: 5704 packets (149233868 bytes) demuxed
Input file #1 (/var/www/html/project/static/images/templates/logo.png):
  Input stream #1:0 (video): 1 packets read (111578 bytes); 1 frames decoded; 
  Total: 1 packets (111578 bytes) demuxed
Input file #2 (/var/www/html/project/static/images/templates/Codino.mp4):
  Input stream #2:0 (audio): 89 packets read (26579 bytes); 87 frames decoded (89024 samples); 
  Input stream #2:1 (video): 50 packets read (203365 bytes); 50 frames decoded; 
  Total: 139 packets (229944 bytes) demuxed
Output file #0 (/var/www/html/project/media/video/watermarks/Il_mio_filmato_4.mp4):
  Output stream #0:0 (video): 2385 frames encoded; 2385 packets muxed (42409930 bytes); 
  Output stream #0:1 (audio): 3454 frames encoded (3536768 samples); 3455 packets muxed (1281009 bytes); 
  Total: 5840 packets (43690939 bytes) muxed
[AVIOContext @ 0x562a42536240] Statistics: 2 seeks, 170 writeouts
[libx264 @ 0x562a424c8f40] frame I:14    Avg QP:16.69  size:206338
[libx264 @ 0x562a424c8f40] frame P:675   Avg QP:19.75  size: 43352
[libx264 @ 0x562a424c8f40] frame B:1696  Avg QP:23.50  size:  6048
[libx264 @ 0x562a424c8f40] consecutive B-frames:  4.4%  1.8%  1.5% 92.2%
[libx264 @ 0x562a424c8f40] mb I  I16..4:  2.9%  8.0% 89.0%
[libx264 @ 0x562a424c8f40] mb P  I16..4:  1.4%  2.4%  2.5%  P16..4: 52.3% 15.6% 13.6%  0.0%  0.0%    skip:12.2%
[libx264 @ 0x562a424c8f40] mb B  I16..4:  0.2%  0.2%  0.1%  B16..8: 14.0%  6.2%  1.7%  direct: 7.1%  skip:70.5%  L0:27.4% L1:40.1% BI:32.4%
[libx264 @ 0x562a424c8f40] 8x8 transform intra:31.3% inter:33.6%
[libx264 @ 0x562a424c8f40] coded y,uvDC,uvAC intra: 72.8% 55.4% 27.3% inter: 18.4% 9.1% 1.5%
[libx264 @ 0x562a424c8f40] i16 v,h,dc,p: 39% 29% 22%  9%
[libx264 @ 0x562a424c8f40] i8 v,h,dc,ddl,ddr,vr,hd,vl,hu: 25% 24% 19%  4%  6%  7%  6%  5%  5%
[libx264 @ 0x562a424c8f40] i4 v,h,dc,ddl,ddr,vr,hd,vl,hu: 22% 20% 11%  6%  8%  8%  9%  7%  8%
[libx264 @ 0x562a424c8f40] i8c dc,h,v,p: 52% 22% 21%  5%
[libx264 @ 0x562a424c8f40] Weighted P-Frames: Y:2.7% UV:0.1%
[libx264 @ 0x562a424c8f40] kb/s:4232.11
[aac @ 0x562a42663b80] Qavg: 735.006
[AVIOContext @ 0x562a424aee40] Statistics: 245403265 bytes read, 4671 seeks
[AVIOContext @ 0x562a424d99c0] Statistics: 111578 bytes read, 0 seeks
[AVIOContext @ 0x562a424cba00] Statistics: 1530915 bytes read, 42 seeks
